#!OML:ASF F:\VICON\USERDATA\INSTALL\rory3\rory3.ASF
:FULLY-SPECIFIED
:DEGREES
2212
root 0.685213 16.6305 -2.31014 6.44963 1.99937 1.61366
lowerback 25.5029 -0.379303 2.28728
upperback 12.5024 0.156989 3.46325
thorax -0.310311 0.0674343 2.40557
lowerneck -12.8184 -2.29577 -11.8813
upperneck -7.43382 -0.765164 34.9362
head 0.747609 0.0482865 13.93
rclavicle -1.51076e-014 -3.18055e-014
rhumerus 39.1087 32.6194 -38.2066
rradius 49.4486
rwrist 18.6226
rhand -11.1877 12.3631
rfingers 7.12502
rthumb 14.8397 -17.0855
lclavicle -1.51076e-014 -3.18055e-014
lhumerus 61.0086 -38.6268 36.8723
lradius 36.2064
lwrist -8.33764
lhand 2.9184 25.4479
lfingers 7.12502
lthumb 28.3826 53.3161
rfemur -29.9237 0.215981 13.501
rtibia 42.1496
rfoot -19.5112 -4.4657
rtoes -21.0787
lfemur -31.438 -2.46232 -21.2535
ltibia 42.2923
lfoot -16.3962 -1.70448
ltoes -14.726
2213
root 0.682945 16.6297 -2.31086 6.4374 2.02187 1.57307
lowerback 25.5561 -0.364208 2.44363
upperback 12.4434 0.214379 3.44915
thorax -0.401794 0.103329 2.28699
lowerneck -12.6146 -2.31131 -11.9151
upperneck -7.5274 -0.760487 35.0888
head 0.690039 0.027456 14.0052
rclavicle -1.82882e-014 -1.51076e-014
rhumerus 38.8273 32.6129 -38.4297
rradius 49.4246
rwrist 18.5107
rhand -11.314 12.3702
rfingers 7.12502
rthumb 14.718 -17.0873
lclavicle -1.82882e-014 -1.51076e-014
lhumerus 60.9324 -38.7198 36.9065
lradius 36.2218
lwrist -8.4059
lhand 2.97554 25.4582
lfingers 7.12502
lthumb 28.4372 53.3173
rfemur -29.9211 0.223884 13.5553
rtibia 42.1696
rfoot -19.5408 -4.47203
rtoes -21.1034
lfemur -31.4395 -2.43884 -21.2075
ltibia 42.2938
lfoot -16.4071 -1.69343
ltoes -15.2387
2214
root 0.681044 16.631 -2.31088 6.4298 2.03949 1.57284
lowerback 25.5667 -0.364765 2.46245
upperback 12.4097 0.220288 3.4612
thorax -0.444563 0.10662 2.28784
lowerneck -12.4879 -2.28119 -11.9434
upperneck -7.53534 -0.712835 35.1622
head 0.654972 0.0402733 14.0469
rclavicle -5.56597e-015 -1.43125e-014
rhumerus 38.6949 32.684 -38.5523
rradius 49.4704
rwrist 18.5356
rhand -11.5412 12.1954
rfingers 7.12502
rthumb 14.4991 -17.278
lclavicle -5.56597e-015 -1.43125e-014
lhumerus 60.7791 -38.6937 36.9737
lradius 36.2269
lwrist -8.4072
lhand 2.98228 25.4277
lfingers 7.12502
lthumb 28.4436 53.2858
rfemur -29.9122 0.206798 13.5649
rtibia 42.1886
rfoot -19.5485 -4.4307
rtoes -20.7547
lfemur -31.4241 -2.46222 -21.1933
ltibia 42.2789
lfoot -16.4268 -1.77347
ltoes -14.7724
2215
root 0.679825 16.6308 -2.31076 6.42532 2.03432 1.58769
lowerback 25.5698 -0.361081 2.44962
upperback 12.4287 0.221907 3.47168
thorax -0.424806 0.10654 2.30625
lowerneck -12.5449 -2.26871 -11.9449
upperneck -7.51601 -0.696222 35.1895
head 0.667517 0.0545962 14.0614
rclavicle -2.70347e-014 -5.08889e-014
rhumerus 38.6786 32.6445 -38.6994
rradius 49.4606
rwrist 18.7242
rhand -11.6447 12.0614
rfingers 7.12502
rthumb 14.3993 -17.4191
lclavicle -2.70347e-014 -5.08889e-014
lhumerus 60.7825 -38.5865 36.9181
lradius 36.1511
lwrist -8.41808
lhand 2.92794 25.5808
lfingers 7.12502
lthumb 28.3917 53.4476
rfemur -29.9144 0.203984 13.5535
rtibia 42.208
rfoot -19.5173 -4.45977
rtoes -20.905
lfemur -31.3998 -2.46358 -21.2006
ltibia 42.2576
lfoot -16.4767 -1.77013
ltoes -15.1195
2216
root 0.678097 16.6315 -2.30878 6.38509 2.0331 1.67695
lowerback 25.604 -0.348122 2.37029
upperback 12.4539 0.22211 3.47427
thorax -0.413426 0.103232 2.35464
lowerneck -12.6469 -2.27269 -11.9208
upperneck -7.45469 -0.718023 35.188
head 0.70847 0.056443 14.0543
rclavicle 2.3059e-014 -7.95139e-015
rhumerus 38.6973 32.6388 -38.7118
rradius 49.4932
rwrist 18.5693
rhand -11.5758 12.0761
rfingers 7.12502
rthumb 14.4657 -17.3997
lclavicle 2.3059e-014 -7.95139e-015
lhumerus 60.7172 -38.4783 36.9252
lradius 36.1136
lwrist -8.50758
lhand 2.80645 25.6527
lfingers 7.12502
lthumb 28.2756 53.5388
rfemur -29.8663 0.222385 13.4548
rtibia 42.2284
rfoot -19.5608 -4.46852
rtoes -21.3313
lfemur -31.3194 -2.47272 -21.2978
ltibia 42.2202
lfoot -16.4903 -1.76559
ltoes -15.0012
2217
root 0.676298 16.6308 -2.30779 6.36147 2.04422 1.75959
lowerback 25.5966 -0.316682 2.32845
upperback 12.4598 0.253353 3.48966
thorax -0.404576 0.116661 2.38733
lowerneck -12.5978 -2.28853 -11.8872
upperneck -7.48692 -0.739389 35.114
head 0.692877 0.0390909 14.0113
rclavicle -8.74653e-015 -1.35174e-014
rhumerus 38.6123 32.6363 -38.6936
rradius 49.5962
rwrist 18.3794
rhand -11.2612 12.1062
rfingers 7.12502
rthumb 14.7689 -17.3476
lclavicle -8.74653e-015 -1.35174e-014
lhumerus 60.7142 -38.4702 36.9091
lradius 36.0877
lwrist -8.50811
lhand 2.69702 25.7368
lfingers 7.12502
lthumb 28.171 53.6401
rfemur -29.8609 0.208951 13.3663
rtibia 42.297
rfoot -19.61 -4.4733
rtoes -21.716
lfemur -31.2624 -2.48327 -21.392
ltibia 42.1546
lfoot -16.4329 -1.7988
ltoes -14.4317
